<svg xmlns="http://www.w3.org/2000/svg" xmlns:xlink="http://www.w3.org/1999/xlink" width="900" height="530" version="1.1">
<style type="text/css">
.l0{
  fill: #ffffff;
  stroke: #ffffff;
  stroke-linecap:round;
  stroke-linejoin:round;
  stroke-width: 0.429962;
}
.l1{
  fill: #000000;
  stroke: #000000;
  stroke-linecap:round;
  stroke-linejoin:round;
  stroke-width: 0.429962;
}
.l2{
  fill: #000000; fill-opacity: 0.2;
  stroke: #000000;
  stroke-linecap:round;
  stroke-linejoin:round;
  stroke-width: 0.429962;
}
.l3{
  fill: #000000; fill-opacity: 0.5;
  stroke: #000000;
  stroke-linecap:round;
  stroke-linejoin:round;
  stroke-width: 0.429962;
}
.l4{
  fill: #000000;
  stroke: #000000;
  stroke-linecap:round;
  stroke-linejoin:round;
  stroke-width: 0.429962;
}
.l5{
  fill: #000000;
  stroke: #000000;
  stroke-linecap:round;
  stroke-linejoin:round;
  stroke-width: 0.429962;
}
.l6{
  fill: #000000; fill-opacity: 0.5;
  stroke: #000000;
  stroke-linecap:round;
  stroke-linejoin:round;
  stroke-width: 0.429962;
}
.l7{
  fill: #000000; fill-opacity: 0.5;
  stroke: #000000;
  stroke-linecap:round;
  stroke-linejoin:round;
  stroke-width: 0.429962;
}
.l8{
  fill: #000000; fill-opacity: 0.5;
  stroke: #000000;
  stroke-linecap:round;
  stroke-linejoin:round;
  stroke-width: 0.429962;
}
.l9{
  fill: #000000; fill-opacity: 0.5;
  stroke: #000000;
  stroke-linecap:round;
  stroke-linejoin:round;
  stroke-width: 0.429962;
}
.l10{
  fill: #000000;
  stroke: #000000;
  stroke-linecap:round;
  stroke-linejoin:round;
  stroke-width: 0.429962;
}
.l11{
  fill: #000000; fill-opacity: 0.5;
  stroke: #000000;
  stroke-linecap:round;
  stroke-linejoin:round;
  stroke-width: 0.429962;
}
.l12{
  fill: #000000; fill-opacity: 0.5;
  stroke: #000000;
  stroke-linecap:round;
  stroke-linejoin:round;
  stroke-width: 0.429962;
}
.l13{
  fill: #000000; fill-opacity: 0.5;
  stroke: #000000;
  stroke-linecap:round;
  stroke-linejoin:round;
  stroke-width: 0.429962;
}
.l14{
  fill: #000000; fill-opacity: 0.2;
  stroke: #000000;
  stroke-linecap:round;
  stroke-linejoin:round;
  stroke-width: 0.429962;
}
.l15{
  fill: #000000; fill-opacity: 0.5;
  stroke: #000000;
  stroke-linecap:round;
  stroke-linejoin:round;
  stroke-width: 0.429962;
}
.l16{
  fill: #000000; fill-opacity: 0.5;
  stroke: #000000;
  stroke-linecap:round;
  stroke-linejoin:round;
  stroke-width: 0.429962;
}
.l17{
  fill: #000000; fill-opacity: 0.2;
  stroke: #000000;
  stroke-linecap:round;
  stroke-linejoin:round;
  stroke-width: 0.429962;
}
.l18{
  fill: #000000; fill-opacity: 0.5;
  stroke: #000000;
  stroke-linecap:round;
  stroke-linejoin:round;
  stroke-width: 0.429962;
}
.l19{
  fill: #000000; fill-opacity: 0.2;
  stroke: #000000;
  stroke-linecap:round;
  stroke-linejoin:round;
  stroke-width: 0.429962;
}
.l20{
  fill: #000000; fill-opacity: 0.2;
  stroke: #000000;
  stroke-linecap:round;
  stroke-linejoin:round;
  stroke-width: 0.429962;
}
.l21{
  fill: #000000; fill-opacity: 0.2;
  stroke: #000000;
  stroke-linecap:round;
  stroke-linejoin:round;
  stroke-width: 0.429962;
}
text {font-family: Sans-Serif;}
</style>
<rect class="l0" x="0" y="0" width="900" height="530"/>
<text fill="#000000"  xml:space="preserve" font-size="6.83162" transform="translate(310.764, 437.1)" >VSS</text>
<text fill="#000000"  xml:space="preserve" font-size="4.14038" transform="translate(358.935, 477.802)" >VSS</text>
<text fill="#000000"  xml:space="preserve" font-size="6.83162" transform="translate(308.764, 54.9115)" >VDD</text>
<text fill="#000000"  xml:space="preserve" font-size="4.14038" transform="translate(359.092, 12.038)" >VDD</text>
<text fill="#000000"  xml:space="preserve" font-size="4.14038" transform="translate(518.337, 12.038)" >VDD</text>
<text fill="#000000"  xml:space="preserve" font-size="4.14038" transform="translate(518.18, 477.802)" >VSS</text>
<text fill="#000000"  xml:space="preserve" font-size="6.83162" transform="translate(341.613, 341.553)" >sink</text>
<text fill="#000000"  xml:space="preserve" font-size="6.83162" transform="translate(626.206, 86.7606)" >V++</text>
<text fill="#000000"  xml:space="preserve" font-size="6.83162" transform="translate(626.206, 150.459)" >V+</text>
<text fill="#000000"  xml:space="preserve" font-size="6.83162" transform="translate(626.206, 341.553)" >V-</text>
<text fill="#000000"  xml:space="preserve" font-size="6.83162" transform="translate(626.206, 405.251)" >V--</text>
<text fill="#000000"  xml:space="preserve" font-size="4.14038" transform="translate(454.639, 12.038)" >VDD</text>
<text fill="#000000"  xml:space="preserve" font-size="4.14038" transform="translate(517.981, 154.932)" >sg13_hv_pmos</text>
<text fill="#000000"  xml:space="preserve" font-size="3.10528" transform="translate(524.749, 158.77)" >D</text>
<text fill="#000000"  xml:space="preserve" font-size="2.07019" transform="translate(523.754, 140.263)" >VDD</text>
<text fill="#000000"  xml:space="preserve" font-size="4.14038" transform="translate(506.834, 140.998)" >M1</text>
<text fill="#000000"  xml:space="preserve" font-size="4.14038" transform="translate(517.981, 145.776)" >2e-06/1e-06 x1</text>
<text fill="#000000"  xml:space="preserve" font-size="4.14038" transform="translate(517.981, 150.951)" >ng=2</text>
<text fill="#000000"  xml:space="preserve" font-size="3.10528" transform="translate(524.749, 163.248)" >#net4</text>
<text fill="#000000"  xml:space="preserve" font-size="3.10528" transform="translate(524.749, 135.381)" >#net2</text>
<text fill="#000000"  xml:space="preserve" font-size="3.10528" transform="translate(504.621, 145.732)" >V+</text>
<text fill="#000000"  xml:space="preserve" font-size="4.14038" transform="translate(528.73, 28.8299)" >Vmeas4</text>
<text fill="#000000"  xml:space="preserve" font-size="4.14038" transform="translate(528.73, 450.83)" >Vmeas6</text>
<text fill="#000000"  xml:space="preserve" font-size="3.10528" transform="translate(524.749, 394.652)" >D</text>
<text fill="#000000"  xml:space="preserve" font-size="2.07019" transform="translate(523.356, 412.572)" >VSS</text>
<text fill="#000000"  xml:space="preserve" font-size="4.14038" transform="translate(506.834, 394.596)" >M2</text>
<text fill="#000000"  xml:space="preserve" font-size="4.14038" transform="translate(522.759, 409.725)" >sg13_hv_nmos</text>
<text fill="#000000"  xml:space="preserve" font-size="4.14038" transform="translate(517.981, 400.17)" >1e-06/1e-06 x1</text>
<text fill="#000000"  xml:space="preserve" font-size="4.14038" transform="translate(517.981, 405.345)" >ng=1</text>
<text fill="#000000"  xml:space="preserve" font-size="3.10528" transform="translate(524.749, 390.173)" >#net3</text>
<text fill="#000000"  xml:space="preserve" font-size="3.10528" transform="translate(524.749, 418.041)" >#net1</text>
<text fill="#000000"  xml:space="preserve" font-size="3.10528" transform="translate(501.64, 400.524)" >V--</text>
<text fill="#000000"  xml:space="preserve" font-size="3.10528" transform="translate(517.768, 330.954)" >D</text>
<text fill="#000000"  xml:space="preserve" font-size="2.07019" transform="translate(518.161, 348.874)" >VSS</text>
<text fill="#000000"  xml:space="preserve" font-size="4.14038" transform="translate(531.683, 330.898)" >M3</text>
<text fill="#000000"  xml:space="preserve" font-size="4.14038" transform="translate(490.759, 346.026)" >sg13_hv_nmos</text>
<text fill="#000000"  xml:space="preserve" font-size="4.14038" transform="translate(492.536, 336.472)" >1e-06/1e-06 x1</text>
<text fill="#000000"  xml:space="preserve" font-size="4.14038" transform="translate(515.536, 341.647)" >ng=1</text>
<text fill="#000000"  xml:space="preserve" font-size="3.10528" transform="translate(516.768, 326.475)" >V--</text>
<text fill="#000000"  xml:space="preserve" font-size="3.10528" transform="translate(510.768, 354.343)" >#net3</text>
<text fill="#000000"  xml:space="preserve" font-size="3.10528" transform="translate(539.877, 336.826)" >V-</text>
<text fill="#000000"  xml:space="preserve" font-size="4.14038" transform="translate(517.981, 91.2341)" >sg13_hv_pmos</text>
<text fill="#000000"  xml:space="preserve" font-size="3.10528" transform="translate(524.749, 95.0716)" >D</text>
<text fill="#000000"  xml:space="preserve" font-size="2.07019" transform="translate(523.754, 76.565)" >VDD</text>
<text fill="#000000"  xml:space="preserve" font-size="4.14038" transform="translate(506.834, 77.3002)" >M4</text>
<text fill="#000000"  xml:space="preserve" font-size="4.14038" transform="translate(517.981, 82.0775)" >2e-06/1e-06 x1</text>
<text fill="#000000"  xml:space="preserve" font-size="4.14038" transform="translate(517.981, 87.253)" >ng=2</text>
<text fill="#000000"  xml:space="preserve" font-size="3.10528" transform="translate(524.749, 99.5504)" >#net2</text>
<text fill="#000000"  xml:space="preserve" font-size="3.10528" transform="translate(524.749, 71.6825)" >#net7</text>
<text fill="#000000"  xml:space="preserve" font-size="3.10528" transform="translate(501.621, 82.0334)" >V++</text>
<text fill="#000000"  xml:space="preserve" font-size="8.28075" transform="translate(283.891, 198.28)" >load OP from TOP</text>
<text fill="#000000"  xml:space="preserve" font-size="3.10528" transform="translate(524.749, 267.256)" >D</text>
<text fill="#000000"  xml:space="preserve" font-size="2.07019" transform="translate(523.356, 285.176)" >VSS</text>
<text fill="#000000"  xml:space="preserve" font-size="4.14038" transform="translate(506.834, 267.2)" >M5</text>
<text fill="#000000"  xml:space="preserve" font-size="4.14038" transform="translate(522.759, 282.328)" >sg13_hv_nmos</text>
<text fill="#000000"  xml:space="preserve" font-size="4.14038" transform="translate(517.981, 272.774)" >1e-06/1e-06 x1</text>
<text fill="#000000"  xml:space="preserve" font-size="4.14038" transform="translate(517.981, 277.949)" >ng=1</text>
<text fill="#000000"  xml:space="preserve" font-size="3.10528" transform="translate(524.749, 262.777)" >V-</text>
<text fill="#000000"  xml:space="preserve" font-size="3.10528" transform="translate(524.749, 290.645)" >V--</text>
<text fill="#000000"  xml:space="preserve" font-size="3.10528" transform="translate(495.64, 273.128)" >#net4</text>
<text fill="#000000"  xml:space="preserve" font-size="3.10528" transform="translate(524.749, 203.557)" >D</text>
<text fill="#000000"  xml:space="preserve" font-size="2.07019" transform="translate(523.356, 221.478)" >VSS</text>
<text fill="#000000"  xml:space="preserve" font-size="4.14038" transform="translate(506.834, 203.502)" >M6</text>
<text fill="#000000"  xml:space="preserve" font-size="4.14038" transform="translate(522.759, 218.63)" >sg13_hv_nmos</text>
<text fill="#000000"  xml:space="preserve" font-size="4.14038" transform="translate(517.981, 209.076)" >1e-06/2e-06 x1</text>
<text fill="#000000"  xml:space="preserve" font-size="4.14038" transform="translate(517.981, 214.251)" >ng=1</text>
<text fill="#000000"  xml:space="preserve" font-size="3.10528" transform="translate(524.749, 199.079)" >#net4</text>
<text fill="#000000"  xml:space="preserve" font-size="3.10528" transform="translate(524.749, 226.947)" >V-</text>
<text fill="#000000"  xml:space="preserve" font-size="3.10528" transform="translate(495.64, 209.43)" >#net4</text>
<text fill="#000000"  xml:space="preserve" font-size="4.14038" transform="translate(431.838, 154.932)" >sg13_hv_pmos</text>
<text fill="#000000"  xml:space="preserve" font-size="3.10528" transform="translate(454.07, 158.77)" >D</text>
<text fill="#000000"  xml:space="preserve" font-size="2.07019" transform="translate(453.065, 140.263)" >VDD</text>
<text fill="#000000"  xml:space="preserve" font-size="4.14038" transform="translate(467.985, 140.998)" >M7</text>
<text fill="#000000"  xml:space="preserve" font-size="4.14038" transform="translate(428.838, 145.776)" >2e-06/1e-06 x1</text>
<text fill="#000000"  xml:space="preserve" font-size="4.14038" transform="translate(451.838, 150.951)" >ng=2</text>
<text fill="#000000"  xml:space="preserve" font-size="3.10528" transform="translate(449.07, 163.248)" >V++</text>
<text fill="#000000"  xml:space="preserve" font-size="3.10528" transform="translate(447.07, 135.381)" >#net5</text>
<text fill="#000000"  xml:space="preserve" font-size="3.10528" transform="translate(472.198, 145.732)" >V+</text>
<text fill="#000000"  xml:space="preserve" font-size="4.14038" transform="translate(454.283, 91.2341)" >sg13_hv_pmos</text>
<text fill="#000000"  xml:space="preserve" font-size="3.10528" transform="translate(461.051, 95.0716)" >D</text>
<text fill="#000000"  xml:space="preserve" font-size="2.07019" transform="translate(460.056, 76.565)" >VDD</text>
<text fill="#000000"  xml:space="preserve" font-size="4.14038" transform="translate(443.136, 77.3002)" >M8</text>
<text fill="#000000"  xml:space="preserve" font-size="4.14038" transform="translate(454.283, 82.0775)" >2e-06/1e-06 x1</text>
<text fill="#000000"  xml:space="preserve" font-size="4.14038" transform="translate(454.283, 87.253)" >ng=2</text>
<text fill="#000000"  xml:space="preserve" font-size="3.10528" transform="translate(461.051, 99.5504)" >#net5</text>
<text fill="#000000"  xml:space="preserve" font-size="3.10528" transform="translate(461.051, 71.6825)" >#net6</text>
<text fill="#000000"  xml:space="preserve" font-size="3.10528" transform="translate(437.923, 82.0334)" >V++</text>
<text fill="#000000"  xml:space="preserve" font-size="4.14038" transform="translate(454.283, 282.328)" >sg13_hv_pmos</text>
<text fill="#000000"  xml:space="preserve" font-size="3.10528" transform="translate(461.051, 286.166)" >D</text>
<text fill="#000000"  xml:space="preserve" font-size="2.07019" transform="translate(460.056, 267.659)" >VDD</text>
<text fill="#000000"  xml:space="preserve" font-size="4.14038" transform="translate(443.136, 268.394)" >M9</text>
<text fill="#000000"  xml:space="preserve" font-size="4.14038" transform="translate(454.283, 273.172)" >2e-06/2e-06 x1</text>
<text fill="#000000"  xml:space="preserve" font-size="4.14038" transform="translate(454.283, 278.347)" >ng=1</text>
<text fill="#000000"  xml:space="preserve" font-size="3.10528" transform="translate(461.051, 290.645)" >sink</text>
<text fill="#000000"  xml:space="preserve" font-size="3.10528" transform="translate(461.051, 262.777)" >V+</text>
<text fill="#000000"  xml:space="preserve" font-size="3.10528" transform="translate(438.923, 273.128)" >sink</text>
<text fill="#000000"  xml:space="preserve" font-size="4.14038" transform="translate(454.283, 218.63)" >sg13_hv_pmos</text>
<text fill="#000000"  xml:space="preserve" font-size="3.10528" transform="translate(461.051, 222.468)" >D</text>
<text fill="#000000"  xml:space="preserve" font-size="2.07019" transform="translate(460.056, 203.961)" >VDD</text>
<text fill="#000000"  xml:space="preserve" font-size="4.14038" transform="translate(443.136, 204.696)" >M10</text>
<text fill="#000000"  xml:space="preserve" font-size="4.14038" transform="translate(454.283, 209.474)" >2e-06/1e-06 x1</text>
<text fill="#000000"  xml:space="preserve" font-size="4.14038" transform="translate(454.283, 214.649)" >ng=2</text>
<text fill="#000000"  xml:space="preserve" font-size="3.10528" transform="translate(461.051, 226.947)" >V+</text>
<text fill="#000000"  xml:space="preserve" font-size="3.10528" transform="translate(461.051, 199.079)" >V++</text>
<text fill="#000000"  xml:space="preserve" font-size="3.10528" transform="translate(438.923, 209.43)" >sink</text>
<text fill="#000000"  xml:space="preserve" font-size="4.14038" transform="translate(465.032, 28.8299)" >Vmeas9</text>
<path class="l4" d="M516.787 136.044L516.787 159.931"/>
<path class="l4" d="M516.787 155.95L522.759 155.95"/>
<path class="l4" d="M522.759 155.95L522.759 159.931"/>
<path class="l4" d="M516.787 140.026L522.759 140.026"/>
<path class="l4" d="M522.759 136.044L522.759 140.026"/>
<path class="l4" d="M516.787 140.026L520.768 138.433"/>
<path class="l4" d="M516.787 140.026L520.768 141.618"/>
<path class="l4" d="M520.768 138.433L520.768 141.618"/>
<path class="l4" d="M512.01 142.016L512.01 153.96"/>
<path class="l4" d="M513.602 142.016L513.602 153.96"/>
<path class="l4" d="M506.834 147.988L512.01 147.988"/>
<path class="l4" d="M512.01 142.016L513.602 142.016"/>
<path class="l4" d="M512.01 153.96L513.602 153.96"/>
<path class="l4" d="M363.513 473.246L365.504 467.275"/>
<path class="l4" d="M361.921 467.275L365.504 467.275"/>
<path class="l4" d="M361.523 467.275L361.921 467.275"/>
<path class="l4" d="M361.523 467.275L363.513 473.246"/>
<path class="l4" d="M363.513 466.478L363.513 467.275"/>
<path class="l4" d="M361.523 19.7954L363.513 13.8237"/>
<path class="l4" d="M361.523 19.7954L365.106 19.7954"/>
<path class="l4" d="M365.106 19.7954L365.504 19.7954"/>
<path class="l4" d="M363.513 13.8237L365.504 19.7954"/>
<path class="l4" d="M363.513 19.7954L363.513 20.5917"/>
<path class="l4" d="M520.768 19.7954L522.759 13.8237"/>
<path class="l4" d="M520.768 19.7954L524.351 19.7954"/>
<path class="l4" d="M524.351 19.7954L524.749 19.7954"/>
<path class="l4" d="M522.759 13.8237L524.749 19.7954"/>
<path class="l4" d="M522.759 19.7954L522.759 20.5917"/>
<path class="l4" d="M522.759 20.5917L522.759 44.4784"/>
<path class="l4" d="M519.773 32.5351L522.759 36.5162"/>
<path class="l4" d="M522.759 36.5162L525.744 32.5351"/>
<path class="l4" d="M522.759 473.246L524.749 467.275"/>
<path class="l4" d="M521.166 467.275L524.749 467.275"/>
<path class="l4" d="M520.768 467.275L521.166 467.275"/>
<path class="l4" d="M520.768 467.275L522.759 473.246"/>
<path class="l4" d="M522.759 466.478L522.759 467.275"/>
<path class="l4" d="M522.759 442.592L522.759 466.478"/>
<path class="l4" d="M519.773 454.535L522.759 458.516"/>
<path class="l4" d="M522.759 458.516L525.744 454.535"/>
<path class="l4" d="M516.787 390.837L516.787 414.724"/>
<path class="l4" d="M516.787 394.818L522.759 394.818"/>
<path class="l4" d="M522.759 390.837L522.759 394.818"/>
<path class="l4" d="M516.787 410.742L522.759 410.742"/>
<path class="l4" d="M522.759 410.742L522.759 414.724"/>
<path class="l4" d="M512.01 396.809L512.01 408.752"/>
<path class="l4" d="M517.981 409.15L521.962 410.742"/>
<path class="l4" d="M517.981 412.335L521.962 410.742"/>
<path class="l4" d="M517.981 409.15L517.981 412.335"/>
<path class="l4" d="M513.602 396.809L513.602 408.752"/>
<path class="l4" d="M506.834 402.78L512.01 402.78"/>
<path class="l4" d="M512.01 396.809L513.602 396.809"/>
<path class="l4" d="M512.01 408.752L513.602 408.752"/>
<path class="l4" d="M528.73 327.139L528.73 351.026"/>
<path class="l4" d="M522.759 331.12L528.73 331.12"/>
<path class="l4" d="M522.759 327.139L522.759 331.12"/>
<path class="l4" d="M522.759 347.044L528.73 347.044"/>
<path class="l4" d="M522.759 347.044L522.759 351.026"/>
<path class="l4" d="M533.508 333.11L533.508 345.054"/>
<path class="l4" d="M523.555 347.044L527.536 345.452"/>
<path class="l4" d="M523.555 347.044L527.536 348.637"/>
<path class="l4" d="M527.536 345.452L527.536 348.637"/>
<path class="l4" d="M531.915 333.11L531.915 345.054"/>
<path class="l4" d="M533.508 339.082L538.683 339.082"/>
<path class="l4" d="M531.915 333.11L533.508 333.11"/>
<path class="l4" d="M531.915 345.054L533.508 345.054"/>
<path class="l4" d="M516.787 72.3464L516.787 96.2331"/>
<path class="l4" d="M516.787 92.252L522.759 92.252"/>
<path class="l4" d="M522.759 92.252L522.759 96.2331"/>
<path class="l4" d="M516.787 76.3275L522.759 76.3275"/>
<path class="l4" d="M522.759 72.3464L522.759 76.3275"/>
<path class="l4" d="M516.787 76.3275L520.768 74.735"/>
<path class="l4" d="M516.787 76.3275L520.768 77.9199"/>
<path class="l4" d="M520.768 74.735L520.768 77.9199"/>
<path class="l4" d="M512.01 78.3181L512.01 90.2614"/>
<path class="l4" d="M513.602 78.3181L513.602 90.2614"/>
<path class="l4" d="M506.834 84.2898L512.01 84.2898"/>
<path class="l4" d="M512.01 78.3181L513.602 78.3181"/>
<path class="l4" d="M512.01 90.2614L513.602 90.2614"/>
<path class="l4" d="M279.91 195.761L267.966 190.785L267.966 193.771L256.023 193.771L260.004 195.761L256.023 197.752L267.966 197.752L267.966 200.738L279.91 195.761"/>
<path class="l4" d="M516.787 263.441L516.787 287.327"/>
<path class="l4" d="M516.787 267.422L522.759 267.422"/>
<path class="l4" d="M522.759 263.441L522.759 267.422"/>
<path class="l4" d="M516.787 283.346L522.759 283.346"/>
<path class="l4" d="M522.759 283.346L522.759 287.327"/>
<path class="l4" d="M512.01 269.412L512.01 281.356"/>
<path class="l4" d="M517.981 281.754L521.962 283.346"/>
<path class="l4" d="M517.981 284.939L521.962 283.346"/>
<path class="l4" d="M517.981 281.754L517.981 284.939"/>
<path class="l4" d="M513.602 269.412L513.602 281.356"/>
<path class="l4" d="M506.834 275.384L512.01 275.384"/>
<path class="l4" d="M512.01 269.412L513.602 269.412"/>
<path class="l4" d="M512.01 281.356L513.602 281.356"/>
<path class="l4" d="M516.787 199.743L516.787 223.629"/>
<path class="l4" d="M516.787 203.724L522.759 203.724"/>
<path class="l4" d="M522.759 199.743L522.759 203.724"/>
<path class="l4" d="M516.787 219.648L522.759 219.648"/>
<path class="l4" d="M522.759 219.648L522.759 223.629"/>
<path class="l4" d="M512.01 205.714L512.01 217.658"/>
<path class="l4" d="M517.981 218.056L521.962 219.648"/>
<path class="l4" d="M517.981 221.241L521.962 219.648"/>
<path class="l4" d="M517.981 218.056L517.981 221.241"/>
<path class="l4" d="M513.602 205.714L513.602 217.658"/>
<path class="l4" d="M506.834 211.686L512.01 211.686"/>
<path class="l4" d="M512.01 205.714L513.602 205.714"/>
<path class="l4" d="M512.01 217.658L513.602 217.658"/>
<path class="l4" d="M465.032 136.044L465.032 159.931"/>
<path class="l4" d="M459.061 155.95L465.032 155.95"/>
<path class="l4" d="M459.061 155.95L459.061 159.931"/>
<path class="l4" d="M459.061 140.026L465.032 140.026"/>
<path class="l4" d="M459.061 136.044L459.061 140.026"/>
<path class="l4" d="M461.051 138.433L465.032 140.026"/>
<path class="l4" d="M461.051 141.618L465.032 140.026"/>
<path class="l4" d="M461.051 138.433L461.051 141.618"/>
<path class="l4" d="M469.81 142.016L469.81 153.96"/>
<path class="l4" d="M468.217 142.016L468.217 153.96"/>
<path class="l4" d="M469.81 147.988L474.985 147.988"/>
<path class="l4" d="M468.217 142.016L469.81 142.016"/>
<path class="l4" d="M468.217 153.96L469.81 153.96"/>
<path class="l4" d="M453.089 72.3464L453.089 96.2331"/>
<path class="l4" d="M453.089 92.252L459.061 92.252"/>
<path class="l4" d="M459.061 92.252L459.061 96.2331"/>
<path class="l4" d="M453.089 76.3275L459.061 76.3275"/>
<path class="l4" d="M459.061 72.3464L459.061 76.3275"/>
<path class="l4" d="M453.089 76.3275L457.07 74.735"/>
<path class="l4" d="M453.089 76.3275L457.07 77.9199"/>
<path class="l4" d="M457.07 74.735L457.07 77.9199"/>
<path class="l4" d="M448.311 78.3181L448.311 90.2614"/>
<path class="l4" d="M449.904 78.3181L449.904 90.2614"/>
<path class="l4" d="M443.136 84.2898L448.311 84.2898"/>
<path class="l4" d="M448.311 78.3181L449.904 78.3181"/>
<path class="l4" d="M448.311 90.2614L449.904 90.2614"/>
<path class="l4" d="M453.089 263.441L453.089 287.327"/>
<path class="l4" d="M453.089 283.346L459.061 283.346"/>
<path class="l4" d="M459.061 283.346L459.061 287.327"/>
<path class="l4" d="M453.089 267.422L459.061 267.422"/>
<path class="l4" d="M459.061 263.441L459.061 267.422"/>
<path class="l4" d="M453.089 267.422L457.07 265.829"/>
<path class="l4" d="M453.089 267.422L457.07 269.014"/>
<path class="l4" d="M457.07 265.829L457.07 269.014"/>
<path class="l4" d="M448.311 269.412L448.311 281.356"/>
<path class="l4" d="M449.904 269.412L449.904 281.356"/>
<path class="l4" d="M443.136 275.384L448.311 275.384"/>
<path class="l4" d="M448.311 269.412L449.904 269.412"/>
<path class="l4" d="M448.311 281.356L449.904 281.356"/>
<path class="l4" d="M453.089 199.743L453.089 223.629"/>
<path class="l4" d="M453.089 219.648L459.061 219.648"/>
<path class="l4" d="M459.061 219.648L459.061 223.629"/>
<path class="l4" d="M453.089 203.724L459.061 203.724"/>
<path class="l4" d="M459.061 199.743L459.061 203.724"/>
<path class="l4" d="M453.089 203.724L457.07 202.131"/>
<path class="l4" d="M453.089 203.724L457.07 205.316"/>
<path class="l4" d="M457.07 202.131L457.07 205.316"/>
<path class="l4" d="M448.311 205.714L448.311 217.658"/>
<path class="l4" d="M449.904 205.714L449.904 217.658"/>
<path class="l4" d="M443.136 211.686L448.311 211.686"/>
<path class="l4" d="M448.311 205.714L449.904 205.714"/>
<path class="l4" d="M448.311 217.658L449.904 217.658"/>
<path class="l4" d="M457.07 19.7954L459.061 13.8237"/>
<path class="l4" d="M457.07 19.7954L460.653 19.7954"/>
<path class="l4" d="M460.653 19.7954L461.051 19.7954"/>
<path class="l4" d="M459.061 13.8237L461.051 19.7954"/>
<path class="l4" d="M459.061 19.7954L459.061 20.5917"/>
<path class="l4" d="M459.061 20.5917L459.061 44.4784"/>
<path class="l4" d="M456.075 32.5351L459.061 36.5162"/>
<path class="l4" d="M459.061 36.5162L462.046 32.5351"/>
<path class="l5" d="M521.763 158.936L523.754 158.936L523.754 160.927L521.763 160.927L521.763 158.936z"/>
<path class="l5" d="M505.839 146.993L507.829 146.993L507.829 148.983L505.839 148.983L505.839 146.993z"/>
<path class="l5" d="M521.763 135.049L523.754 135.049L523.754 137.04L521.763 137.04L521.763 135.049z"/>
<path class="l5" d="M330.42 434.629L331.664 434.629"/>
<path class="l5" d="M326.19 436.62L324.697 434.629L326.19 432.639L328.927 432.639L330.42 434.629L328.927 436.62L326.19 436.62"/>
<path class="l5" d="M331.167 434.132L332.162 434.132L332.162 435.127L331.167 435.127L331.167 434.132z"/>
<path class="l5" d="M362.518 465.483L364.509 465.483L364.509 467.474L362.518 467.474L362.518 465.483z"/>
<path class="l5" d="M330.42 52.4407L331.664 52.4407"/>
<path class="l5" d="M326.19 54.4313L324.697 52.4407L326.19 50.4501L328.927 50.4501L330.42 52.4407L328.927 54.4313L326.19 54.4313"/>
<path class="l5" d="M331.167 51.9431L332.162 51.9431L332.162 52.9383L331.167 52.9383L331.167 51.9431z"/>
<path class="l5" d="M362.518 19.5964L364.509 19.5964L364.509 21.5869L362.518 21.5869L362.518 19.5964z"/>
<path class="l5" d="M521.763 19.5964L523.754 19.5964L523.754 21.5869L521.763 21.5869L521.763 19.5964z"/>
<path class="l5" d="M521.763 19.5964L523.754 19.5964L523.754 21.5869L521.763 21.5869L521.763 19.5964z"/>
<path class="l5" d="M521.763 43.4832L523.754 43.4832L523.754 45.4737L521.763 45.4737L521.763 43.4832z"/>
<path class="l5" d="M521.763 465.483L523.754 465.483L523.754 467.474L521.763 467.474L521.763 465.483z"/>
<path class="l5" d="M521.763 441.596L523.754 441.596L523.754 443.587L521.763 443.587L521.763 441.596z"/>
<path class="l5" d="M521.763 465.483L523.754 465.483L523.754 467.474L521.763 467.474L521.763 465.483z"/>
<path class="l5" d="M521.763 389.842L523.754 389.842L523.754 391.832L521.763 391.832L521.763 389.842z"/>
<path class="l5" d="M505.839 401.785L507.829 401.785L507.829 403.776L505.839 403.776L505.839 401.785z"/>
<path class="l5" d="M521.763 413.728L523.754 413.728L523.754 415.719L521.763 415.719L521.763 413.728z"/>
<path class="l5" d="M498.685 402.594L499.058 402.594L499.058 402.967L498.685 402.967L498.685 402.594z"/>
<path class="l5" d="M521.763 326.143L523.754 326.143L523.754 328.134L521.763 328.134L521.763 326.143z"/>
<path class="l5" d="M537.688 338.087L539.678 338.087L539.678 340.077L537.688 340.077L537.688 338.087z"/>
<path class="l5" d="M521.763 350.03L523.754 350.03L523.754 352.021L521.763 352.021L521.763 350.03z"/>
<path class="l5" d="M546.459 243.348L546.832 243.348L546.832 243.722L546.459 243.722L546.459 243.348z"/>
<path class="l5" d="M521.763 95.2379L523.754 95.2379L523.754 97.2284L521.763 97.2284L521.763 95.2379z"/>
<path class="l5" d="M505.839 83.2945L507.829 83.2945L507.829 85.285L505.839 85.285L505.839 83.2945z"/>
<path class="l5" d="M521.763 71.3511L523.754 71.3511L523.754 73.3416L521.763 73.3416L521.763 71.3511z"/>
<path class="l5" d="M522.572 60.2164L522.945 60.2164L522.945 60.5896L522.572 60.5896L522.572 60.2164z"/>
<path class="l5" d="M522.572 119.933L522.945 119.933L522.945 120.307L522.572 120.307L522.572 119.933z"/>
<path class="l5" d="M362.269 339.082L363.513 339.082"/>
<path class="l5" d="M358.039 341.073L356.546 339.082L358.039 337.092L360.776 337.092L362.269 339.082L360.776 341.073L358.039 341.073"/>
<path class="l5" d="M363.016 338.584L364.011 338.584L364.011 339.58L363.016 339.58L363.016 338.584z"/>
<path class="l5" d="M618.306 84.2898L619.55 84.2898"/>
<path class="l5" d="M623.78 86.2803L625.273 84.2898L623.78 82.2992L621.043 82.2992L619.55 84.2898L621.043 86.2803L623.78 86.2803"/>
<path class="l5" d="M617.808 83.7921L618.803 83.7921L618.803 84.7874L617.808 84.7874L617.808 83.7921z"/>
<path class="l5" d="M618.306 147.988L619.55 147.988"/>
<path class="l5" d="M623.78 149.978L625.273 147.988L623.78 145.997L621.043 145.997L619.55 147.988L621.043 149.978L623.78 149.978"/>
<path class="l5" d="M617.808 147.49L618.803 147.49L618.803 148.485L617.808 148.485L617.808 147.49z"/>
<path class="l5" d="M618.306 339.082L619.55 339.082"/>
<path class="l5" d="M623.78 341.073L625.273 339.082L623.78 337.092L621.043 337.092L619.55 339.082L621.043 341.073L623.78 341.073"/>
<path class="l5" d="M617.808 338.584L618.803 338.584L618.803 339.58L617.808 339.58L617.808 338.584z"/>
<path class="l5" d="M618.306 402.78L619.55 402.78"/>
<path class="l5" d="M623.78 404.771L625.273 402.78L623.78 400.79L621.043 400.79L619.55 402.78L621.043 404.771L623.78 404.771"/>
<path class="l5" d="M617.808 402.283L618.803 402.283L618.803 403.278L617.808 403.278L617.808 402.283z"/>
<path class="l5" d="M521.763 262.445L523.754 262.445L523.754 264.436L521.763 264.436L521.763 262.445z"/>
<path class="l5" d="M505.839 274.389L507.829 274.389L507.829 276.379L505.839 276.379L505.839 274.389z"/>
<path class="l5" d="M521.763 286.332L523.754 286.332L523.754 288.323L521.763 288.323L521.763 286.332z"/>
<path class="l5" d="M498.685 275.197L499.058 275.197L499.058 275.571L498.685 275.571L498.685 275.197z"/>
<path class="l5" d="M521.763 198.747L523.754 198.747L523.754 200.738L521.763 200.738L521.763 198.747z"/>
<path class="l5" d="M505.839 210.691L507.829 210.691L507.829 212.681L505.839 212.681L505.839 210.691z"/>
<path class="l5" d="M521.763 222.634L523.754 222.634L523.754 224.625L521.763 224.625L521.763 222.634z"/>
<path class="l5" d="M522.572 179.65L522.945 179.65L522.945 180.024L522.572 180.024L522.572 179.65z"/>
<path class="l5" d="M458.065 158.936L460.056 158.936L460.056 160.927L458.065 160.927L458.065 158.936z"/>
<path class="l5" d="M473.99 146.993L475.98 146.993L475.98 148.983L473.99 148.983L473.99 146.993z"/>
<path class="l5" d="M458.065 135.049L460.056 135.049L460.056 137.04L458.065 137.04L458.065 135.049z"/>
<path class="l5" d="M482.761 147.801L483.134 147.801L483.134 148.174L482.761 148.174L482.761 147.801z"/>
<path class="l5" d="M458.065 95.2379L460.056 95.2379L460.056 97.2284L458.065 97.2284L458.065 95.2379z"/>
<path class="l5" d="M442.141 83.2945L444.131 83.2945L444.131 85.285L442.141 85.285L442.141 83.2945z"/>
<path class="l5" d="M458.065 71.3511L460.056 71.3511L460.056 73.3416L458.065 73.3416L458.065 71.3511z"/>
<path class="l5" d="M434.987 84.1031L435.36 84.1031L435.36 84.4764L434.987 84.4764L434.987 84.1031z"/>
<path class="l5" d="M458.874 119.933L459.247 119.933L459.247 120.307L458.874 120.307L458.874 119.933z"/>
<path class="l5" d="M458.065 286.332L460.056 286.332L460.056 288.323L458.065 288.323L458.065 286.332z"/>
<path class="l5" d="M442.141 274.389L444.131 274.389L444.131 276.379L442.141 276.379L442.141 274.389z"/>
<path class="l5" d="M458.065 262.445L460.056 262.445L460.056 264.436L458.065 264.436L458.065 262.445z"/>
<path class="l5" d="M434.987 275.197L435.36 275.197L435.36 275.571L434.987 275.571L434.987 275.197z"/>
<path class="l5" d="M458.065 222.634L460.056 222.634L460.056 224.625L458.065 224.625L458.065 222.634z"/>
<path class="l5" d="M442.141 210.691L444.131 210.691L444.131 212.681L442.141 212.681L442.141 210.691z"/>
<path class="l5" d="M458.065 198.747L460.056 198.747L460.056 200.738L458.065 200.738L458.065 198.747z"/>
<path class="l5" d="M458.065 19.5964L460.056 19.5964L460.056 21.5869L458.065 21.5869L458.065 19.5964z"/>
<path class="l5" d="M458.065 19.5964L460.056 19.5964L460.056 21.5869L458.065 21.5869L458.065 19.5964z"/>
<path class="l5" d="M458.065 43.4832L460.056 43.4832L460.056 45.4737L458.065 45.4737L458.065 43.4832z"/>
<path class="l5" d="M458.874 60.2164L459.247 60.2164L459.247 60.5896L458.874 60.5896L458.874 60.2164z"/>
<path class="l15" d="M496.881 400.79L498.872 402.78"/>
<path class="l15" d="M546.645 243.535L548.636 241.544"/>
<path class="l15" d="M520.768 58.4124L522.759 60.403"/>
<path class="l15" d="M522.759 120.12L524.749 118.129"/>
<path class="l15" d="M496.881 273.393L498.872 275.384"/>
<path class="l15" d="M522.759 179.837L524.749 177.846"/>
<path class="l15" d="M482.947 147.988L484.938 145.997"/>
<path class="l15" d="M433.183 82.2992L435.174 84.2898"/>
<path class="l15" d="M459.061 120.12L461.051 118.129"/>
<path class="l15" d="M433.183 273.393L435.174 275.384"/>
<path class="l15" d="M459.061 60.403L461.051 58.4124"/>
<path class="l1" d="M331.664 434.629L363.513 434.629"/>
<path class="l1" d="M522.759 414.724L522.759 442.592"/>
<path class="l1" d="M522.759 96.2331L522.759 136.044"/>
<path class="l1" d="M482.947 147.988L618.306 147.988"/>
<path class="l1" d="M522.759 351.026L522.759 390.837"/>
<path class="l1" d="M498.872 275.384L506.834 275.384"/>
<path class="l1" d="M498.872 191.78L522.759 191.78"/>
<path class="l1" d="M498.872 211.686L506.834 211.686"/>
<path class="l1" d="M522.759 307.233L522.759 327.139"/>
<path class="l1" d="M522.759 191.78L522.759 199.743"/>
<path class="l1" d="M546.645 243.535L546.645 339.082"/>
<path class="l1" d="M522.759 243.535L546.645 243.535"/>
<path class="l1" d="M522.759 223.629L522.759 243.535"/>
<path class="l1" d="M498.872 211.686L498.872 275.384"/>
<path class="l1" d="M498.872 191.78L498.872 211.686"/>
<path class="l1" d="M498.872 307.233L498.872 402.78"/>
<path class="l1" d="M498.872 307.233L522.759 307.233"/>
<path class="l1" d="M522.759 287.327L522.759 307.233"/>
<path class="l1" d="M538.683 339.082L546.645 339.082"/>
<path class="l1" d="M498.872 402.78L618.306 402.78"/>
<path class="l1" d="M546.645 339.082L618.306 339.082"/>
<path class="l1" d="M459.061 96.2331L459.061 136.044"/>
<path class="l1" d="M459.061 243.535L459.061 263.441"/>
<path class="l1" d="M459.061 171.875L459.061 199.743"/>
<path class="l1" d="M435.174 171.875L459.061 171.875"/>
<path class="l1" d="M459.061 159.931L459.061 171.875"/>
<path class="l1" d="M435.174 84.2898L435.174 171.875"/>
<path class="l1" d="M435.174 211.686L443.136 211.686"/>
<path class="l1" d="M435.174 211.686L435.174 275.384"/>
<path class="l1" d="M435.174 275.384L443.136 275.384"/>
<path class="l1" d="M435.174 275.384L435.174 295.29"/>
<path class="l1" d="M435.174 295.29L459.061 295.29"/>
<path class="l1" d="M459.061 287.327L459.061 295.29"/>
<path class="l1" d="M482.947 147.988L482.947 243.535"/>
<path class="l1" d="M474.985 147.988L482.947 147.988"/>
<path class="l1" d="M459.061 243.535L482.947 243.535"/>
<path class="l1" d="M459.061 223.629L459.061 243.535"/>
<path class="l1" d="M459.061 44.4784L459.061 72.3464"/>
<path class="l1" d="M435.174 84.2898L618.306 84.2898"/>
<path class="l1" d="M522.759 159.931L522.759 191.78"/>
<path class="l1" d="M522.759 243.535L522.759 263.441"/>
<path class="l1" d="M522.759 44.4784L522.759 72.3464"/>
<path class="l1" d="M363.513 339.082L459.061 339.082"/>
<path class="l1" d="M459.061 295.29L459.061 339.082"/>
<path class="l1" d="M363.513 434.629L363.513 466.478"/>
<path class="l1" d="M331.664 52.4407L363.513 52.4407"/>
<path class="l1" d="M363.513 20.5917L363.513 52.4407"/>
<circle class="l1" cx="522.759" cy="243.535" r="1.47302"/>
<circle class="l1" cx="522.759" cy="191.78" r="1.47302"/>
<circle class="l1" cx="459.061" cy="243.535" r="1.47302"/>
<circle class="l1" cx="459.061" cy="243.535" r="1.47302"/>
<circle class="l1" cx="482.947" cy="147.988" r="1.47302"/>
<circle class="l1" cx="482.947" cy="147.988" r="1.47302"/>
<circle class="l1" cx="435.174" cy="275.384" r="1.47302"/>
<circle class="l1" cx="459.061" cy="171.875" r="1.47302"/>
<circle class="l1" cx="459.061" cy="171.875" r="1.47302"/>
<circle class="l1" cx="459.061" cy="171.875" r="1.47302"/>
<circle class="l1" cx="459.061" cy="243.535" r="1.47302"/>
<circle class="l1" cx="498.872" cy="211.686" r="1.47302"/>
<circle class="l1" cx="498.872" cy="211.686" r="1.47302"/>
<circle class="l1" cx="522.759" cy="243.535" r="1.47302"/>
<circle class="l1" cx="522.759" cy="243.535" r="1.47302"/>
<circle class="l1" cx="546.645" cy="339.082" r="1.47302"/>
<circle class="l1" cx="522.759" cy="191.78" r="1.47302"/>
<circle class="l1" cx="498.872" cy="211.686" r="1.47302"/>
<circle class="l1" cx="522.759" cy="191.78" r="1.47302"/>
<circle class="l1" cx="482.947" cy="147.988" r="1.47302"/>
<circle class="l1" cx="459.061" cy="295.29" r="1.47302"/>
<circle class="l1" cx="459.061" cy="295.29" r="1.47302"/>
<circle class="l1" cx="459.061" cy="295.29" r="1.47302"/>
<circle class="l1" cx="435.174" cy="275.384" r="1.47302"/>
<circle class="l1" cx="435.174" cy="275.384" r="1.47302"/>
<circle class="l1" cx="546.645" cy="339.082" r="1.47302"/>
<circle class="l1" cx="546.645" cy="339.082" r="1.47302"/>
<circle class="l1" cx="522.759" cy="307.233" r="1.47302"/>
<circle class="l1" cx="522.759" cy="307.233" r="1.47302"/>
<circle class="l1" cx="522.759" cy="307.233" r="1.47302"/>
<text fill="#000000"  xml:space="preserve" font-size="6.21056" transform="translate(299.815, 503.967)" >loaded .raw files: </text>
<text fill="#000000"  xml:space="preserve" font-size="6.21056" transform="translate(299.815, 511.09)" >0 current</text>
<text fill="#000000"  xml:space="preserve" font-size="6.21056" transform="translate(299.815, 518.214)" >0 </text>
</svg>
